Coordinates
version=1
nRows=16
nColumns=33
inDegrees=yes

Units are S.I. units (second, meters, Newtons, ...)
Angles are in degrees.

endheader
time	ground_thorax_rot_x	ground_thorax_rot_y	ground_thorax_rot_z	ground_thorax_tx	ground_thorax_ty	ground_thorax_tz	clav_prot_r	clav_elev_r	scapula_abduction_r	scapula_elevation_r	scapula_upward_rot_r	scapula_winging_r	shoulder_elv_r	plane_of_elev_r	axial_rot_r	elbow_flexion_r	pro_sup_r	wrist_flex_r	wrist_dev_r	clav_prot_l	clav_elev_l	scapula_abduction_l	scapula_elevation_l	scapula_upward_rot_l	scapula_winging_l	shoulder_elv_l	plane_of_elev_l	axial_rot_l	elbow_flexion_l	pro_sup_l	wrist_flex_l	wrist_dev_l
      2.16000000	    -40.29601882	     -6.77128121	      4.66799188	    -58.73543539	    799.38123538	      8.12304877	     -4.47870635	    -45.00000000	     45.00000000	    -45.00000000	     23.76924379	  -2270.12647421	  -2458.66112271	     20.01178842	   -179.99999979	   2527.51791062	   -126.97198572	     15.12604555	     12.16222054	     17.61852410	     40.63570514	    -45.00000000	    -41.03230347	    -32.06000357	   1878.06122122	  -1181.06977158	    135.53334795	   -179.46438285	   1445.13442188	    373.15661574	     14.20202374	    -17.58703156
      2.17000000	    -39.87734046	     -7.35425985	      5.15017869	    -56.99212349	    797.28892785	      8.36186664	     -3.72268249	    -45.00000000	     45.00000000	    -45.00000000	     21.95989324	  -2269.72463725	  -2458.88665530	     20.11885067	   -179.99999979	   2527.39229560	   -126.98660321	     15.03375698	     11.96828073	     17.40241722	     39.88428595	    -45.00000000	    -40.52060281	    -33.10730524	   1878.06326058	  -1180.82484921	    135.26765870	   -179.13922745	   1444.92741440	    373.36860483	     14.26454088	    -17.58155384
      2.18000000	    -39.56478638	     -7.46403121	      5.15754898	    -55.59640311	    795.47789214	      8.54516896	     -3.69175629	    -45.00000000	     45.00000000	    -45.00000000	     21.62371308	  -2269.53857890	  -2458.86966799	     20.00571210	   -179.99999979	   2527.42380997	   -127.12323264	     14.83142868	     11.69447427	     17.43081026	     39.75345373	    -45.00000000	    -40.10550595	    -32.80821366	   1878.00687689	  -1180.99981820	    135.47508288	   -179.57231554	   1444.76240565	    373.42649683	     14.17004362	    -17.54026906
      2.19000000	    -39.27638663	     -7.53249233	      5.02860229	    -54.56909921	    793.94379133	      8.65591531	     -3.65327280	    -45.00000000	     45.00000000	    -45.00000000	     21.27064718	  -2269.34646691	  -2458.90167394	     19.93501689	   -179.99999979	   2527.37976616	   -127.29906029	     14.69286620	     11.45561037	     17.28775162	     39.33540935	    -45.00000000	    -39.76148882	    -32.62629180	   1877.96681616	  -1181.05609317	    135.56425365	   -179.85795777	   1444.64279979	    373.38357707	     14.15629857	    -17.50010860
      2.20000000	    -38.97721282	     -7.62890576	      4.95640133	    -53.92226150	    792.66807313	      8.68319730	     -3.64511361	    -45.00000000	     45.00000000	    -45.00000000	     20.95727331	  -2269.17147238	  -2458.83583668	     19.84117474	   -179.99999979	   2527.36939008	   -127.45876309	     14.47802176	     11.18097759	     17.28384528	     38.91538886	    -45.00000000	    -39.40850190	    -32.40278714	   1877.92301247	  -1181.15913785	    135.70388734	   -179.99999979	   1444.41094062	    373.27395365	     14.09158233	    -17.44495864
      2.21000000	    -38.71164713	     -7.80919633	      4.89534768	    -53.66264242	    791.62883376	      8.62169760	     -3.60220759	    -45.00000000	     45.00000000	    -45.00000000	     20.62229676	  -2268.98909912	  -2458.78141427	     19.74206610	   -179.99999979	   2527.40047248	   -127.55486718	     14.23561506	     10.94410912	     17.21803062	     38.66420619	    -45.00000000	    -39.14427221	    -32.27835784	   1878.04090016	  -1181.35956278	    135.81383370	   -179.99999979	   1444.34238806	    373.12859002	     13.92496514	    -17.46715208
      2.22000000	    -38.54734835	     -7.88492863	      4.73328151	    -53.79349177	    790.80558634	      8.47253719	     -3.54064407	    -45.00000000	     45.00000000	    -45.00000000	     20.36187626	  -2268.90598176	  -2458.74400045	     19.72776398	   -179.99999979	   2527.51798045	   -127.56656544	     14.14349982	     10.91970814	     17.17133034	     38.74345793	    -45.00000000	    -38.94812528	    -32.18970081	   1878.16469797	  -1181.32423529	    135.88533559	   -179.99999979	   1444.34706404	    373.01619081	     13.79409736	    -17.52669220
      2.23000000	    -38.33788268	     -7.86785409	      4.55153697	    -54.31128220	    790.17242948	      8.24284996	     -3.50162075	    -45.00000000	     45.00000000	    -45.00000000	     20.06429634	  -2268.84144689	  -2458.60249834	     19.71694169	   -179.99999979	   2527.54390423	   -127.46544855	     14.02324587	     10.84536111	     17.13993076	     38.86831999	    -45.00000000	    -38.69099313	    -32.04592617	   1878.16693403	  -1181.22796746	    135.91270538	   -179.99999979	   1444.23545066	    372.92768726	     13.64331954	    -17.56378102
      2.24000000	    -38.23009365	     -7.87690917	      4.35220287	    -55.21309297	    789.70204212	      7.94284581	     -3.40244884	    -45.00000000	     45.00000000	    -45.00000000	     19.88279726	  -2268.87507741	  -2458.54265249	     19.68792451	   -179.99999979	   2527.52208726	   -127.22308555	     14.08673874	     10.92520761	     17.06402797	     38.67257625	    -45.00000000	    -38.74631050	    -31.85454528	   1878.43793054	  -1181.50271935	    135.78342834	   -179.99999979	   1444.20640642	    372.87409898	     13.62567198	    -17.64055446
      2.25000000	    -38.14573031	     -7.85844813	      4.14364633	    -56.49335063	    789.37004173	      7.58649526	     -3.35597402	    -45.00000000	     45.00000000	    -45.00000000	     19.53623730	  -2268.79113083	  -2458.41161086	     19.64607448	   -179.99999979	   2527.54402095	   -126.76883363	     13.95830090	     10.84958017	     17.01235802	     38.95464191	    -45.00000000	    -38.73329488	    -31.93000982	   1878.30760572	  -1181.34016978	    135.96543371	   -179.99999979	   1444.21047875	    372.83667002	     13.45534143	    -17.73232079
      2.26000000	    -38.01847292	     -7.93733560	      4.05248070	    -58.14138780	    789.15371909	      7.19172240	     -3.19557267	    -45.00000000	     45.00000000	    -45.00000000	     19.23614789	  -2268.90266219	  -2458.18717359	     19.69471107	   -179.99999979	   2527.56371426	   -126.09763421	     14.12438865	     11.04407828	     17.03803644	     38.64183667	    -45.00000000	    -38.59295009	    -31.76012427	   1878.84844626	  -1181.60123672	    135.71643263	   -179.99999979	   1444.04669302	    372.83327651	     13.46744133	    -17.78958690
      2.27000000	    -37.91907617	     -7.86121965	      3.80457300	    -60.15260219	    789.03057335	      6.77479243	     -3.04694298	    -45.00000000	     45.00000000	    -45.00000000	     18.64690651	  -2268.68331885	  -2458.05460161	     19.64312140	   -179.99999979	   2527.44502284	   -125.18179283	     14.05950143	     10.95094223	     16.80786421	     38.61406155	    -45.00000000	    -38.67156946	    -31.81236698	   1878.66372111	  -1181.55419798	    135.94872186	   -179.99999979	   1444.09905101	    372.88147258	     13.35683463	    -17.92480712
      2.28000000	    -38.05040154	     -8.30416182	      4.27341834	    -62.51338849	    788.98132638	      6.35358803	     -2.69013206	    -45.00000000	     45.00000000	    -45.00000000	     17.90798177	  -2269.00473492	  -2457.85194614	     19.52370388	   -179.99999979	   2527.36304242	   -123.07585642	     14.13400576	     11.00197414	     17.35872971	     39.39555975	    -45.00000000	    -39.36702953	    -33.39002374	   1878.29731072	  -1181.38600237	    136.00423494	   -179.99999979	   1444.35961635	    373.04350887	     13.11701041	    -18.01325417
      2.29000000	    -38.12379397	     -8.48499025	      4.30646378	    -65.21016957	    788.98954270	      5.92715355	     -2.44818523	    -45.00000000	     45.00000000	    -45.00000000	     17.47183398	  -2269.23958883	  -2457.69567915	     19.52562342	   -179.99999979	   2527.26672326	   -120.46282616	     14.32398398	     11.13041330	     17.47679322	     39.49360832	    -45.00000000	    -39.60848633	    -33.95298884	   1878.54295615	  -1181.40738759	    135.87654489	   -179.99999979	   1444.33495990	    373.17422235	     12.91545679	    -18.10551910
      2.30000000	    -38.14490579	     -8.48509428	      4.13214263	    -68.21966948	    789.04143965	      5.49129658	     -2.34619334	    -45.00000000	     45.00000000	    -45.00000000	     17.21215706	  -2269.29619369	  -2457.41389659	     19.43727335	   -179.99999979	   2527.05114957	   -117.62871072	     14.46056985	     11.14426569	     17.34758080	     39.67326111	    -45.00000000	    -39.82677975	    -34.33449602	   1878.61681799	  -1181.37424785	    135.95907381	   -179.99999979	   1444.49119323	    373.36808800	     12.86979705	    -18.25385745
      2.31000000	    -38.26094053	     -8.81630135	      4.47241926	    -71.51737044	    789.12761964	      5.03425346	     -2.04477989	    -45.00000000	     45.00000000	    -45.00000000	     16.26869475	  -2269.77530420	  -2457.30348100	     19.60504013	   -179.99999979	   2526.91505825	   -113.75291821	     14.69755519	     11.22791732	     17.91855517	     39.45933989	    -45.00000000	    -40.16870399	    -35.32547506	   1878.81338853	  -1181.37054278	    135.77254564	   -179.99999979	   1444.39474279	    373.63588750	     12.52198692	    -18.35608603
